solid cylinder
  facet normal 0.751816 -0.659373 0
    outer loop
       vertex 0.000353552 -0.000353552 0
       vertex 0.000396676 -0.000304382 0
       vertex 0.000396676 -0.000304382 0.0002
    endloop
  endfacet
  facet normal 0.751816 -0.659373 0
    outer loop
       vertex 0.000396676 -0.000304382 0.0002
       vertex 0.000353552 -0.000353552 0.0002
       vertex 0.000353552 -0.000353552 0
    endloop
  endfacet
  facet normal 0.831476 -0.555561 0
    outer loop
       vertex 0.000396676 -0.000304382 0
       vertex 0.000433012 -0.00025 0
       vertex 0.000433012 -0.00025 0.0002
    endloop
  endfacet
  facet normal 0.831476 -0.555561 0
    outer loop
       vertex 0.000433012 -0.00025 0.0002
       vertex 0.000396676 -0.000304382 0.0002
       vertex 0.000396676 -0.000304382 0
    endloop
  endfacet
  facet normal 0.896866 -0.442302 0
    outer loop
       vertex 0.000433012 -0.00025 0
       vertex 0.00046194 -0.000191342 0
       vertex 0.00046194 -0.000191342 0.0002
    endloop
  endfacet
  facet normal 0.896866 -0.442302 0
    outer loop
       vertex 0.00046194 -0.000191342 0.0002
       vertex 0.000433012 -0.00025 0.0002
       vertex 0.000433012 -0.00025 0
    endloop
  endfacet
  facet normal 0.946935 -0.321424 0
    outer loop
       vertex 0.00046194 -0.000191342 0
       vertex 0.000482962 -0.00012941 0
       vertex 0.000482962 -0.00012941 0.0002
    endloop
  endfacet
  facet normal 0.946935 -0.321424 0
    outer loop
       vertex 0.000482962 -0.00012941 0.0002
       vertex 0.00046194 -0.000191342 0.0002
       vertex 0.00046194 -0.000191342 0
    endloop
  endfacet
  facet normal 0.980784 -0.195096 0
    outer loop
       vertex 0.000482962 -0.00012941 0
       vertex 0.000495722 -6.5263e-05 0
       vertex 0.000495722 -6.5263e-05 0.0002
    endloop
  endfacet
  facet normal 0.980784 -0.195096 0
    outer loop
       vertex 0.000495722 -6.5263e-05 0.0002
       vertex 0.000482962 -0.00012941 0.0002
       vertex 0.000482962 -0.00012941 0
    endloop
  endfacet
  facet normal 0.997858 -0.0654102 0
    outer loop
       vertex 0.0005 -1.66533e-19 0.0002
       vertex 0.000495722 -6.5263e-05 0.0002
       vertex 0.000495722 -6.5263e-05 0
    endloop
  endfacet
  facet normal 0.997858 -0.0654102 -1.0276e-16
    outer loop
       vertex 0.000495722 -6.5263e-05 0
       vertex 0.0005 1.66533e-19 0
       vertex 0.0005 -1.66533e-19 0.0002
    endloop
  endfacet
  facet normal 0.997858 0.0654102 0
    outer loop
       vertex 0.0005 1.66533e-19 0
       vertex 0.000495722 6.5263e-05 0
       vertex 0.000495722 6.5263e-05 0.0002
    endloop
  endfacet
  facet normal 0.997858 0.0654102 1.0276e-16
    outer loop
       vertex 0.000495722 6.5263e-05 0.0002
       vertex 0.0005 -1.66533e-19 0.0002
       vertex 0.0005 1.66533e-19 0
    endloop
  endfacet
  facet normal 0.980784 0.195096 0
    outer loop
       vertex 0.000495722 6.5263e-05 0
       vertex 0.000482962 0.00012941 0
       vertex 0.000482962 0.00012941 0.0002
    endloop
  endfacet
  facet normal 0.980784 0.195096 0
    outer loop
       vertex 0.000482962 0.00012941 0.0002
       vertex 0.000495722 6.5263e-05 0.0002
       vertex 0.000495722 6.5263e-05 0
    endloop
  endfacet
  facet normal 0.946935 0.321424 0
    outer loop
       vertex 0.000482962 0.00012941 0
       vertex 0.00046194 0.000191342 0
       vertex 0.00046194 0.000191342 0.0002
    endloop
  endfacet
  facet normal 0.946935 0.321424 0
    outer loop
       vertex 0.00046194 0.000191342 0.0002
       vertex 0.000482962 0.00012941 0.0002
       vertex 0.000482962 0.00012941 0
    endloop
  endfacet
  facet normal 0.896866 0.442302 0
    outer loop
       vertex 0.00046194 0.000191342 0
       vertex 0.000433012 0.00025 0
       vertex 0.000433012 0.00025 0.0002
    endloop
  endfacet
  facet normal 0.896866 0.442302 0
    outer loop
       vertex 0.000433012 0.00025 0.0002
       vertex 0.00046194 0.000191342 0.0002
       vertex 0.00046194 0.000191342 0
    endloop
  endfacet
  facet normal 0.831476 0.555561 0
    outer loop
       vertex 0.000433012 0.00025 0
       vertex 0.000396676 0.000304382 0
       vertex 0.000396676 0.000304382 0.0002
    endloop
  endfacet
  facet normal 0.831476 0.555561 0
    outer loop
       vertex 0.000396676 0.000304382 0.0002
       vertex 0.000433012 0.00025 0.0002
       vertex 0.000433012 0.00025 0
    endloop
  endfacet
  facet normal 0.751816 0.659373 0
    outer loop
       vertex 0.000396676 0.000304382 0
       vertex 0.000353552 0.000353552 0
       vertex 0.000353552 0.000353552 0.0002
    endloop
  endfacet
  facet normal 0.751816 0.659373 0
    outer loop
       vertex 0.000353552 0.000353552 0.0002
       vertex 0.000396676 0.000304382 0.0002
       vertex 0.000396676 0.000304382 0
    endloop
  endfacet
  facet normal 0.659373 0.751816 0
    outer loop
       vertex 0.000353552 0.000353552 0
       vertex 0.000304382 0.000396676 0
       vertex 0.000304382 0.000396676 0.0002
    endloop
  endfacet
  facet normal 0.659373 0.751816 0
    outer loop
       vertex 0.000304382 0.000396676 0.0002
       vertex 0.000353552 0.000353552 0.0002
       vertex 0.000353552 0.000353552 0
    endloop
  endfacet
  facet normal 0.555561 0.831476 0
    outer loop
       vertex 0.000304382 0.000396676 0
       vertex 0.00025 0.000433012 0
       vertex 0.00025 0.000433012 0.0002
    endloop
  endfacet
  facet normal 0.555561 0.831476 0
    outer loop
       vertex 0.00025 0.000433012 0.0002
       vertex 0.000304382 0.000396676 0.0002
       vertex 0.000304382 0.000396676 0
    endloop
  endfacet
  facet normal 0.442302 0.896866 0
    outer loop
       vertex 0.00025 0.000433012 0
       vertex 0.000191342 0.00046194 0
       vertex 0.000191342 0.00046194 0.0002
    endloop
  endfacet
  facet normal 0.442302 0.896866 0
    outer loop
       vertex 0.000191342 0.00046194 0.0002
       vertex 0.00025 0.000433012 0.0002
       vertex 0.00025 0.000433012 0
    endloop
  endfacet
  facet normal 0.321424 0.946935 0
    outer loop
       vertex 0.000191342 0.00046194 0
       vertex 0.00012941 0.000482962 0
       vertex 0.00012941 0.000482962 0.0002
    endloop
  endfacet
  facet normal 0.321424 0.946935 0
    outer loop
       vertex 0.00012941 0.000482962 0.0002
       vertex 0.000191342 0.00046194 0.0002
       vertex 0.000191342 0.00046194 0
    endloop
  endfacet
  facet normal 0.195096 0.980784 0
    outer loop
       vertex 0.00012941 0.000482962 0
       vertex 6.5263e-05 0.000495722 0
       vertex 6.5263e-05 0.000495722 0.0002
    endloop
  endfacet
  facet normal 0.195096 0.980784 0
    outer loop
       vertex 6.5263e-05 0.000495722 0.0002
       vertex 0.00012941 0.000482962 0.0002
       vertex 0.00012941 0.000482962 0
    endloop
  endfacet
  facet normal 0.0654102 0.997858 0
    outer loop
       vertex 1.66533e-19 0.0005 0.0002
       vertex 6.5263e-05 0.000495722 0.0002
       vertex 6.5263e-05 0.000495722 0
    endloop
  endfacet
  facet normal 0.0654102 0.997858 -1.0276e-16
    outer loop
       vertex 6.5263e-05 0.000495722 0
       vertex -1.66533e-19 0.0005 0
       vertex 1.66533e-19 0.0005 0.0002
    endloop
  endfacet
  facet normal -0.0654102 0.997858 0
    outer loop
       vertex -1.66533e-19 0.0005 0
       vertex -6.5263e-05 0.000495722 0
       vertex -6.5263e-05 0.000495722 0.0002
    endloop
  endfacet
  facet normal -0.0654102 0.997858 1.0276e-16
    outer loop
       vertex -6.5263e-05 0.000495722 0.0002
       vertex 1.66533e-19 0.0005 0.0002
       vertex -1.66533e-19 0.0005 0
    endloop
  endfacet
  facet normal -0.195096 0.980784 0
    outer loop
       vertex -6.5263e-05 0.000495722 0
       vertex -0.00012941 0.000482962 0
       vertex -0.00012941 0.000482962 0.0002
    endloop
  endfacet
  facet normal -0.195096 0.980784 0
    outer loop
       vertex -0.00012941 0.000482962 0.0002
       vertex -6.5263e-05 0.000495722 0.0002
       vertex -6.5263e-05 0.000495722 0
    endloop
  endfacet
  facet normal -0.321424 0.946935 0
    outer loop
       vertex -0.00012941 0.000482962 0
       vertex -0.000191342 0.00046194 0
       vertex -0.000191342 0.00046194 0.0002
    endloop
  endfacet
  facet normal -0.321424 0.946935 0
    outer loop
       vertex -0.000191342 0.00046194 0.0002
       vertex -0.00012941 0.000482962 0.0002
       vertex -0.00012941 0.000482962 0
    endloop
  endfacet
  facet normal -0.442302 0.896866 0
    outer loop
       vertex -0.000191342 0.00046194 0
       vertex -0.00025 0.000433012 0
       vertex -0.00025 0.000433012 0.0002
    endloop
  endfacet
  facet normal -0.442302 0.896866 0
    outer loop
       vertex -0.00025 0.000433012 0.0002
       vertex -0.000191342 0.00046194 0.0002
       vertex -0.000191342 0.00046194 0
    endloop
  endfacet
  facet normal -0.555561 0.831476 0
    outer loop
       vertex -0.00025 0.000433012 0
       vertex -0.000304382 0.000396676 0
       vertex -0.000304382 0.000396676 0.0002
    endloop
  endfacet
  facet normal -0.555561 0.831476 0
    outer loop
       vertex -0.000304382 0.000396676 0.0002
       vertex -0.00025 0.000433012 0.0002
       vertex -0.00025 0.000433012 0
    endloop
  endfacet
  facet normal -0.659373 0.751816 0
    outer loop
       vertex -0.000304382 0.000396676 0
       vertex -0.000353552 0.000353552 0
       vertex -0.000353552 0.000353552 0.0002
    endloop
  endfacet
  facet normal -0.659373 0.751816 0
    outer loop
       vertex -0.000353552 0.000353552 0.0002
       vertex -0.000304382 0.000396676 0.0002
       vertex -0.000304382 0.000396676 0
    endloop
  endfacet
  facet normal -0.751816 0.659373 0
    outer loop
       vertex -0.000353552 0.000353552 0
       vertex -0.000396676 0.000304382 0
       vertex -0.000396676 0.000304382 0.0002
    endloop
  endfacet
  facet normal -0.751816 0.659373 0
    outer loop
       vertex -0.000396676 0.000304382 0.0002
       vertex -0.000353552 0.000353552 0.0002
       vertex -0.000353552 0.000353552 0
    endloop
  endfacet
  facet normal -0.831476 0.555561 0
    outer loop
       vertex -0.000396676 0.000304382 0
       vertex -0.000433012 0.00025 0
       vertex -0.000433012 0.00025 0.0002
    endloop
  endfacet
  facet normal -0.831476 0.555561 0
    outer loop
       vertex -0.000433012 0.00025 0.0002
       vertex -0.000396676 0.000304382 0.0002
       vertex -0.000396676 0.000304382 0
    endloop
  endfacet
  facet normal -0.896866 0.442302 0
    outer loop
       vertex -0.000433012 0.00025 0
       vertex -0.00046194 0.000191342 0
       vertex -0.00046194 0.000191342 0.0002
    endloop
  endfacet
  facet normal -0.896866 0.442302 0
    outer loop
       vertex -0.00046194 0.000191342 0.0002
       vertex -0.000433012 0.00025 0.0002
       vertex -0.000433012 0.00025 0
    endloop
  endfacet
  facet normal -0.946935 0.321424 0
    outer loop
       vertex -0.00046194 0.000191342 0
       vertex -0.000482962 0.00012941 0
       vertex -0.000482962 0.00012941 0.0002
    endloop
  endfacet
  facet normal -0.946935 0.321424 0
    outer loop
       vertex -0.000482962 0.00012941 0.0002
       vertex -0.00046194 0.000191342 0.0002
       vertex -0.00046194 0.000191342 0
    endloop
  endfacet
  facet normal -0.980784 0.195096 0
    outer loop
       vertex -0.000482962 0.00012941 0
       vertex -0.000495722 6.5263e-05 0
       vertex -0.000495722 6.5263e-05 0.0002
    endloop
  endfacet
  facet normal -0.980784 0.195096 0
    outer loop
       vertex -0.000495722 6.5263e-05 0.0002
       vertex -0.000482962 0.00012941 0.0002
       vertex -0.000482962 0.00012941 0
    endloop
  endfacet
  facet normal -0.997858 0.0654102 0
    outer loop
       vertex -0.0005 1.66533e-19 0.0002
       vertex -0.000495722 6.5263e-05 0.0002
       vertex -0.000495722 6.5263e-05 0
    endloop
  endfacet
  facet normal -0.997858 0.0654102 -1.0276e-16
    outer loop
       vertex -0.000495722 6.5263e-05 0
       vertex -0.0005 -1.66533e-19 0
       vertex -0.0005 1.66533e-19 0.0002
    endloop
  endfacet
  facet normal -0.997858 -0.0654102 0
    outer loop
       vertex -0.0005 -1.66533e-19 0
       vertex -0.000495722 -6.5263e-05 0
       vertex -0.000495722 -6.5263e-05 0.0002
    endloop
  endfacet
  facet normal -0.997858 -0.0654102 1.0276e-16
    outer loop
       vertex -0.000495722 -6.5263e-05 0.0002
       vertex -0.0005 1.66533e-19 0.0002
       vertex -0.0005 -1.66533e-19 0
    endloop
  endfacet
  facet normal -0.980784 -0.195096 0
    outer loop
       vertex -0.000495722 -6.5263e-05 0
       vertex -0.000482962 -0.00012941 0
       vertex -0.000482962 -0.00012941 0.0002
    endloop
  endfacet
  facet normal -0.980784 -0.195096 0
    outer loop
       vertex -0.000482962 -0.00012941 0.0002
       vertex -0.000495722 -6.5263e-05 0.0002
       vertex -0.000495722 -6.5263e-05 0
    endloop
  endfacet
  facet normal -0.946935 -0.321424 0
    outer loop
       vertex -0.000482962 -0.00012941 0
       vertex -0.00046194 -0.000191342 0
       vertex -0.00046194 -0.000191342 0.0002
    endloop
  endfacet
  facet normal -0.946935 -0.321424 0
    outer loop
       vertex -0.00046194 -0.000191342 0.0002
       vertex -0.000482962 -0.00012941 0.0002
       vertex -0.000482962 -0.00012941 0
    endloop
  endfacet
  facet normal -0.896866 -0.442302 0
    outer loop
       vertex -0.00046194 -0.000191342 0
       vertex -0.000433012 -0.00025 0
       vertex -0.000433012 -0.00025 0.0002
    endloop
  endfacet
  facet normal -0.896866 -0.442302 0
    outer loop
       vertex -0.000433012 -0.00025 0.0002
       vertex -0.00046194 -0.000191342 0.0002
       vertex -0.00046194 -0.000191342 0
    endloop
  endfacet
  facet normal -0.831476 -0.555561 0
    outer loop
       vertex -0.000433012 -0.00025 0
       vertex -0.000396676 -0.000304382 0
       vertex -0.000396676 -0.000304382 0.0002
    endloop
  endfacet
  facet normal -0.831476 -0.555561 0
    outer loop
       vertex -0.000396676 -0.000304382 0.0002
       vertex -0.000433012 -0.00025 0.0002
       vertex -0.000433012 -0.00025 0
    endloop
  endfacet
  facet normal -0.751816 -0.659373 0
    outer loop
       vertex -0.000396676 -0.000304382 0
       vertex -0.000353552 -0.000353552 0
       vertex -0.000353552 -0.000353552 0.0002
    endloop
  endfacet
  facet normal -0.751816 -0.659373 0
    outer loop
       vertex -0.000353552 -0.000353552 0.0002
       vertex -0.000396676 -0.000304382 0.0002
       vertex -0.000396676 -0.000304382 0
    endloop
  endfacet
  facet normal 0.659373 -0.751816 0
    outer loop
       vertex 0.000353552 -0.000353552 0
       vertex 0.000353552 -0.000353552 0.0002
       vertex 0.000304382 -0.000396676 0.0002
    endloop
  endfacet
  facet normal 0.659373 -0.751816 0
    outer loop
       vertex 0.000304382 -0.000396676 0.0002
       vertex 0.000304382 -0.000396676 0
       vertex 0.000353552 -0.000353552 0
    endloop
  endfacet
  facet normal 0.555561 -0.831476 0
    outer loop
       vertex 0.000304382 -0.000396676 0
       vertex 0.000304382 -0.000396676 0.0002
       vertex 0.00025 -0.000433012 0.0002
    endloop
  endfacet
  facet normal 0.555561 -0.831476 0
    outer loop
       vertex 0.00025 -0.000433012 0.0002
       vertex 0.00025 -0.000433012 0
       vertex 0.000304382 -0.000396676 0
    endloop
  endfacet
  facet normal 0.442302 -0.896866 0
    outer loop
       vertex 0.00025 -0.000433012 0
       vertex 0.00025 -0.000433012 0.0002
       vertex 0.000191342 -0.00046194 0.0002
    endloop
  endfacet
  facet normal 0.442302 -0.896866 0
    outer loop
       vertex 0.000191342 -0.00046194 0.0002
       vertex 0.000191342 -0.00046194 0
       vertex 0.00025 -0.000433012 0
    endloop
  endfacet
  facet normal 0.321424 -0.946935 0
    outer loop
       vertex 0.000191342 -0.00046194 0
       vertex 0.000191342 -0.00046194 0.0002
       vertex 0.00012941 -0.000482962 0.0002
    endloop
  endfacet
  facet normal 0.321424 -0.946935 0
    outer loop
       vertex 0.00012941 -0.000482962 0.0002
       vertex 0.00012941 -0.000482962 0
       vertex 0.000191342 -0.00046194 0
    endloop
  endfacet
  facet normal 0.195096 -0.980784 0
    outer loop
       vertex 0.00012941 -0.000482962 0
       vertex 0.00012941 -0.000482962 0.0002
       vertex 6.5263e-05 -0.000495722 0.0002
    endloop
  endfacet
  facet normal 0.195096 -0.980784 0
    outer loop
       vertex 6.5263e-05 -0.000495722 0.0002
       vertex 6.5263e-05 -0.000495722 0
       vertex 0.00012941 -0.000482962 0
    endloop
  endfacet
  facet normal 0.0654102 -0.997858 0
    outer loop
       vertex 1.66533e-19 -0.0005 0
       vertex 6.5263e-05 -0.000495722 0
       vertex 6.5263e-05 -0.000495722 0.0002
    endloop
  endfacet
  facet normal 0.0654102 -0.997858 1.0276e-16
    outer loop
       vertex 6.5263e-05 -0.000495722 0.0002
       vertex -1.66533e-19 -0.0005 0.0002
       vertex 1.66533e-19 -0.0005 0
    endloop
  endfacet
  facet normal -0.0654102 -0.997858 0
    outer loop
       vertex -1.66533e-19 -0.0005 0.0002
       vertex -6.5263e-05 -0.000495722 0.0002
       vertex -6.5263e-05 -0.000495722 0
    endloop
  endfacet
  facet normal -0.0654102 -0.997858 -1.0276e-16
    outer loop
       vertex -6.5263e-05 -0.000495722 0
       vertex 1.66533e-19 -0.0005 0
       vertex -1.66533e-19 -0.0005 0.0002
    endloop
  endfacet
  facet normal -0.195096 -0.980784 0
    outer loop
       vertex -6.5263e-05 -0.000495722 0
       vertex -6.5263e-05 -0.000495722 0.0002
       vertex -0.00012941 -0.000482962 0.0002
    endloop
  endfacet
  facet normal -0.195096 -0.980784 -0
    outer loop
       vertex -0.00012941 -0.000482962 0.0002
       vertex -0.00012941 -0.000482962 0
       vertex -6.5263e-05 -0.000495722 0
    endloop
  endfacet
  facet normal -0.321424 -0.946935 0
    outer loop
       vertex -0.00012941 -0.000482962 0
       vertex -0.00012941 -0.000482962 0.0002
       vertex -0.000191342 -0.00046194 0.0002
    endloop
  endfacet
  facet normal -0.321424 -0.946935 -0
    outer loop
       vertex -0.000191342 -0.00046194 0.0002
       vertex -0.000191342 -0.00046194 0
       vertex -0.00012941 -0.000482962 0
    endloop
  endfacet
  facet normal -0.442302 -0.896866 0
    outer loop
       vertex -0.000191342 -0.00046194 0
       vertex -0.000191342 -0.00046194 0.0002
       vertex -0.00025 -0.000433012 0.0002
    endloop
  endfacet
  facet normal -0.442302 -0.896866 -0
    outer loop
       vertex -0.00025 -0.000433012 0.0002
       vertex -0.00025 -0.000433012 0
       vertex -0.000191342 -0.00046194 0
    endloop
  endfacet
  facet normal -0.555561 -0.831476 0
    outer loop
       vertex -0.00025 -0.000433012 0
       vertex -0.00025 -0.000433012 0.0002
       vertex -0.000304382 -0.000396676 0.0002
    endloop
  endfacet
  facet normal -0.555561 -0.831476 -0
    outer loop
       vertex -0.000304382 -0.000396676 0.0002
       vertex -0.000304382 -0.000396676 0
       vertex -0.00025 -0.000433012 0
    endloop
  endfacet
  facet normal -0.659373 -0.751816 0
    outer loop
       vertex -0.000304382 -0.000396676 0
       vertex -0.000304382 -0.000396676 0.0002
       vertex -0.000353552 -0.000353552 0.0002
    endloop
  endfacet
  facet normal -0.659373 -0.751816 -0
    outer loop
       vertex -0.000353552 -0.000353552 0.0002
       vertex -0.000353552 -0.000353552 0
       vertex -0.000304382 -0.000396676 0
    endloop
  endfacet
endsolid cylinder
